<svg width="40" height="41" viewBox="0 0 40 41" fill="none" xmlns="http://www.w3.org/2000/svg">
<g clip-path="url(#clip0_162_286)">
<path d="M25.1 20.4307C25.1 23.2307 22.8 25.5307 20 25.5307C17.2 25.5307 14.9 23.2307 14.9 20.4307C14.9 17.6307 17.2 15.3307 20 15.3307C22.8 15.3307 25.1 17.6307 25.1 20.4307ZM26.5 12.6307C25.7 12.6307 25 13.3307 25 14.1307C25 14.9307 25.7 15.6307 26.5 15.6307C27.3 15.6307 28 14.9307 28 14.1307C28 13.3307 27.4 12.6307 26.5 12.6307ZM40 20.4307C40 31.4307 31 40.4307 20 40.4307C9 40.4307 0 31.4307 0 20.4307C0 9.43066 9 0.430664 20 0.430664C31 0.430664 40 9.43066 40 20.4307ZM32 13.8307C32 10.9307 29.6 8.43066 26.6 8.43066H13.3C10.4 8.43066 7.9 10.8307 7.9 13.8307V27.1307C7.9 30.0307 10.3 32.5307 13.3 32.5307H26.6C29.5 32.5307 32 30.1307 32 27.1307V13.8307Z" fill="#6C6577"/>
</g>
<defs>
<clipPath id="clip0_162_286">
<rect width="40" height="40" fill="white" transform="translate(0 0.430664)"/>
</clipPath>
</defs>
</svg>
